<svg xmlns="http://www.w3.org/2000/svg" xmlns:xlink="http://www.w3.org/1999/xlink" width="500" zoomAndPan="magnify" viewBox="0 0 375 374.999991" height="500" preserveAspectRatio="xMidYMid meet" version="1.0"><defs><filter x="0%" y="0%" width="100%" height="100%" id="71089a10de"><feColorMatrix values="0 0 0 0 1 0 0 0 0 1 0 0 0 0 1 0 0 0 1 0" color-interpolation-filters="sRGB"/></filter><mask id="b2368d8c4d"><g filter="url(#71089a10de)"><rect x="-37.5" width="450" fill="#000000" y="-37.499999" height="449.999989" fill-opacity="0.62"/></g></mask><clipPath id="3c2088b60c"><path d="M 0.789062 0.789062 L 262.210938 0.789062 L 262.210938 262.210938 L 0.789062 262.210938 Z M 0.789062 0.789062 " clip-rule="nonzero"/></clipPath><clipPath id="f9f9a45af7"><path d="M 131.5 0.789062 C 59.308594 0.789062 0.789062 59.308594 0.789062 131.5 C 0.789062 203.691406 59.308594 262.210938 131.5 262.210938 C 203.691406 262.210938 262.210938 203.691406 262.210938 131.5 C 262.210938 59.308594 203.691406 0.789062 131.5 0.789062 " clip-rule="nonzero"/></clipPath><clipPath id="006d67e4e8"><rect x="0" width="263" y="0" height="263"/></clipPath><clipPath id="a51766597d"><path d="M 67.03125 117.566406 L 261.15625 117.566406 L 261.15625 237.34375 L 67.03125 237.34375 Z M 67.03125 117.566406 " clip-rule="nonzero"/></clipPath><clipPath id="9e5b3a0d78"><path d="M 120.4375 100.996094 L 239.699219 100.996094 L 239.699219 215.976562 L 120.4375 215.976562 Z M 120.4375 100.996094 " clip-rule="nonzero"/></clipPath><clipPath id="c05fa1b395"><path d="M 180.070312 100.996094 C 147.136719 100.996094 120.4375 126.734375 120.4375 158.484375 C 120.4375 190.238281 147.136719 215.976562 180.070312 215.976562 C 213 215.976562 239.699219 190.238281 239.699219 158.484375 C 239.699219 126.734375 213 100.996094 180.070312 100.996094 " clip-rule="nonzero"/></clipPath><clipPath id="3dac79fa4a"><path d="M 197.515625 185.949219 L 301.59375 185.949219 L 301.59375 237.003906 L 197.515625 237.003906 Z M 197.515625 185.949219 " clip-rule="nonzero"/></clipPath><clipPath id="adda8c1feb"><path d="M 133.253906 113.324219 L 211.800781 113.324219 L 211.800781 191.871094 L 133.253906 191.871094 Z M 133.253906 113.324219 " clip-rule="nonzero"/></clipPath><clipPath id="4a2ba4b56c"><path d="M 203.53125 158.484375 L 275.863281 158.484375 L 275.863281 228.222656 L 203.53125 228.222656 Z M 203.53125 158.484375 " clip-rule="nonzero"/></clipPath><clipPath id="80aaea59c0"><path d="M 239.699219 158.484375 C 219.722656 158.484375 203.53125 174.097656 203.53125 193.355469 C 203.53125 212.613281 219.722656 228.222656 239.699219 228.222656 C 259.671875 228.222656 275.863281 212.613281 275.863281 193.355469 C 275.863281 174.097656 259.671875 158.484375 239.699219 158.484375 " clip-rule="nonzero"/></clipPath><clipPath id="bfb937d57e"><path d="M 191 180 L 255 180 L 255 244 L 191 244 Z M 191 180 " clip-rule="nonzero"/></clipPath><clipPath id="b9893a3448"><path d="M 186.691406 187.097656 L 248.484375 175.683594 L 259.898438 237.476562 L 198.105469 248.890625 Z M 186.691406 187.097656 " clip-rule="nonzero"/></clipPath><clipPath id="f9b3000a28"><path d="M 186.691406 187.097656 L 248.484375 175.683594 L 259.898438 237.476562 L 198.105469 248.890625 Z M 186.691406 187.097656 " clip-rule="nonzero"/></clipPath><clipPath id="8ae0ae089a"><path d="M 259.171875 187.5 L 305.332031 187.5 L 305.332031 236.578125 L 259.171875 236.578125 Z M 259.171875 187.5 " clip-rule="nonzero"/></clipPath><clipPath id="bfd4a4c6b4"><path d="M 282.253906 187.5 C 269.503906 187.5 259.171875 198.488281 259.171875 212.039062 C 259.171875 225.59375 269.503906 236.578125 282.253906 236.578125 C 295 236.578125 305.332031 225.59375 305.332031 212.039062 C 305.332031 198.488281 295 187.5 282.253906 187.5 " clip-rule="nonzero"/></clipPath></defs><g mask="url(#b2368d8c4d)"><g transform="matrix(1, 0, 0, 1, 56, 56)"><g clip-path="url(#006d67e4e8)"><g clip-path="url(#3c2088b60c)"><g clip-path="url(#f9f9a45af7)"><path fill="#a1d5ff" d="M 0.789062 0.789062 L 262.210938 0.789062 L 262.210938 262.210938 L 0.789062 262.210938 Z M 0.789062 0.789062 " fill-opacity="1" fill-rule="nonzero"/></g></g></g></g></g><g clip-path="url(#a51766597d)"><path fill="#ffffff" d="M 261.15625 207.398438 C 261.15625 223.941406 247.789062 237.34375 231.292969 237.34375 L 111.84375 237.34375 C 87.109375 237.34375 67.03125 217.238281 67.03125 192.441406 C 67.03125 167.609375 87.109375 147.507812 111.84375 147.507812 C 114.421875 147.507812 116.972656 147.734375 119.460938 148.15625 C 129.691406 129.898438 149.195312 117.5625 171.566406 117.5625 C 204.5625 117.5625 231.292969 144.367188 231.292969 177.453125 C 247.789062 177.453125 261.15625 190.855469 261.15625 207.398438 " fill-opacity="1" fill-rule="nonzero"/></g><g clip-path="url(#9e5b3a0d78)"><g clip-path="url(#c05fa1b395)"><path fill="#ffffff" d="M 120.4375 100.996094 L 239.699219 100.996094 L 239.699219 215.976562 L 120.4375 215.976562 Z M 120.4375 100.996094 " fill-opacity="1" fill-rule="nonzero"/></g></g><g clip-path="url(#3dac79fa4a)"><path fill="#ffffff" d="M 302.328125 211.480469 C 302.328125 225.585938 290.851562 237.007812 276.6875 237.007812 L 174.121094 237.007812 C 152.882812 237.007812 135.640625 219.871094 135.640625 198.734375 C 135.640625 177.566406 152.882812 160.429688 174.121094 160.429688 C 176.335938 160.429688 178.527344 160.621094 180.660156 160.980469 C 189.449219 145.417969 206.191406 134.902344 225.402344 134.902344 C 253.734375 134.902344 276.6875 157.75 276.6875 185.957031 C 290.851562 185.957031 302.328125 197.382812 302.328125 211.480469 " fill-opacity="1" fill-rule="nonzero"/></g><g clip-path="url(#adda8c1feb)"><path fill="#69418b" d="M 172.527344 171.460938 C 162.109375 171.460938 153.664062 163.015625 153.664062 152.597656 C 153.664062 142.1875 162.109375 133.738281 172.527344 133.738281 C 182.945312 133.738281 191.390625 142.1875 191.390625 152.597656 C 191.390625 163.015625 182.945312 171.460938 172.527344 171.460938 Z M 211.054688 145.039062 L 205.609375 145.039062 C 204.914062 143.667969 203.832031 139.085938 202.375 136.394531 L 206.238281 132.542969 C 203.308594 127.640625 199.375 123.421875 194.683594 120.199219 L 191.246094 124.042969 C 188.636719 122.371094 185.929688 121.03125 183.183594 120.117188 L 183.183594 114.628906 C 179.054688 113.804688 176.601562 113.324219 173.199219 113.324219 C 171.023438 113.324219 169.4375 113.546875 166.683594 113.890625 L 166.683594 119.273438 C 162.5625 119.929688 159.628906 121.109375 156.601562 122.753906 L 152.613281 118.890625 C 147.710938 121.820312 143.421875 125.75 140.199219 130.4375 L 144.007812 134.273438 C 141.914062 137.53125 140.332031 142.292969 139.445312 145.039062 L 134 145.039062 C 133.519531 149.160156 133.253906 150.8125 133.253906 153.394531 C 133.253906 156.386719 133.625 158.785156 134.257812 162.914062 L 139.746094 162.914062 C 140.660156 164.28125 142.089844 168.792969 143.972656 171.71875 L 140.128906 175.15625 C 143.351562 179.859375 147.578125 183.582031 152.480469 186.511719 L 156.601562 182.542969 C 159.628906 184.1875 162.5625 185.269531 166.683594 185.929688 L 166.683594 191.308594 C 169.433594 191.648438 171.023438 191.871094 173.199219 191.871094 C 176.601562 191.871094 179.054688 191.390625 183.175781 190.570312 L 183.175781 185.085938 C 185.929688 184.167969 188.636719 182.820312 191.246094 181.15625 L 194.886719 184.996094 C 199.578125 181.777344 203.40625 177.550781 206.335938 172.65625 L 202.421875 169.601562 C 203.691406 167.257812 204.613281 164.285156 205.308594 162.914062 L 210.796875 162.914062 C 211.433594 158.785156 211.800781 156.386719 211.800781 153.394531 C 211.800781 150.8125 211.539062 149.160156 211.054688 145.039062 " fill-opacity="1" fill-rule="nonzero"/></g><g clip-path="url(#4a2ba4b56c)"><g clip-path="url(#80aaea59c0)"><path fill="#ffffff" d="M 203.53125 158.484375 L 275.863281 158.484375 L 275.863281 228.222656 L 203.53125 228.222656 Z M 203.53125 158.484375 " fill-opacity="1" fill-rule="nonzero"/></g></g><g clip-path="url(#bfb937d57e)"><g clip-path="url(#b9893a3448)"><g clip-path="url(#f9b3000a28)"><path fill="#38b6ff" d="M 226.035156 227.125 C 217.839844 228.640625 209.96875 223.222656 208.457031 215.027344 C 206.945312 206.835938 212.359375 198.960938 220.554688 197.449219 C 228.75 195.933594 236.621094 201.355469 238.136719 209.546875 C 239.648438 217.742188 234.230469 225.613281 226.035156 227.125 Z M 252.507812 200.742188 L 248.222656 201.535156 C 247.472656 200.554688 245.957031 197.109375 244.421875 195.203125 L 246.902344 191.613281 C 243.882812 188.179688 240.175781 185.433594 236.015625 183.582031 L 233.871094 187.101562 C 231.574219 186.164062 229.253906 185.503906 226.957031 185.1875 L 226.160156 180.867188 C 222.792969 180.820312 220.792969 180.800781 218.117188 181.292969 C 216.40625 181.609375 215.191406 182.015625 213.074219 182.683594 L 213.855469 186.917969 C 210.710938 188.035156 208.570312 189.386719 206.429688 191.121094 L 202.730469 188.664062 C 199.300781 191.679688 196.496094 195.394531 194.644531 199.550781 L 198.195312 202.015625 C 197.023438 204.878906 196.46875 208.855469 196.171875 211.148438 L 191.886719 211.9375 C 192.109375 215.25 192.140625 216.589844 192.515625 218.617188 C 192.949219 220.972656 193.589844 222.804688 194.6875 225.960938 L 199.003906 225.164062 C 199.921875 226.105469 201.703125 229.449219 203.609375 231.476562 L 201.085938 234.742188 C 204.304688 237.96875 208.167969 240.285156 212.449219 241.878906 L 215.117188 238.15625 C 217.738281 239.011719 220.203125 239.4375 223.542969 239.359375 L 224.324219 243.589844 C 226.535156 243.457031 227.816406 243.402344 229.527344 243.085938 C 232.207031 242.59375 234.066406 241.855469 237.1875 240.609375 L 236.394531 236.300781 C 238.425781 235.175781 240.359375 233.722656 242.167969 232.03125 L 245.589844 234.527344 C 248.8125 231.308594 251.210938 227.429688 252.804688 223.152344 L 249.285156 221.320312 C 249.941406 219.289062 250.234375 216.820312 250.582031 215.636719 L 254.902344 214.839844 C 254.800781 211.5 254.742188 209.558594 254.308594 207.207031 C 253.933594 205.175781 253.484375 203.914062 252.507812 200.742188 " fill-opacity="1" fill-rule="nonzero"/></g></g></g><g clip-path="url(#8ae0ae089a)"><g clip-path="url(#bfd4a4c6b4)"><path fill="#ffffff" d="M 259.171875 187.5 L 305.332031 187.5 L 305.332031 236.578125 L 259.171875 236.578125 Z M 259.171875 187.5 " fill-opacity="1" fill-rule="nonzero"/></g></g></svg>